<svg xmlns="http://www.w3.org/2000/svg" xmlns:xlink="http://www.w3.org/1999/xlink" width="390.734" height="126.396" viewBox="0 0 390.734 126.396">
  <defs>
    <linearGradient id="linear-gradient" x1="0.161" y1="0.183" x2="0.5" y2="1" gradientUnits="objectBoundingBox">
      <stop offset="0" stop-color="#1381fe"/>
      <stop offset="1" stop-color="#38c6eb"/>
    </linearGradient>
  </defs>
  <g id="Group_68" data-name="Group 68" transform="translate(17920 276.792)">
    <g id="Group_67" data-name="Group 67" transform="translate(-19010 -453)">
      <g id="Group_35" data-name="Group 35">
        <g id="Group_32" data-name="Group 32" transform="translate(-41 21.208)">
          <path id="Path_19" data-name="Path 19" d="M115.866,30.968h-53.5c-1.708,0-7.486,6.078-7.545,8.455l-21.486,78.57C-2.044,100.143-10.972,52.642,14.84,22.442c25.7-30.066,71.184-29.948,96.54.512,1.823,2.191,4.672,5.119,4.486,8.014" transform="translate(1131 155)" fill="url(#linear-gradient)"/>
          <path id="Path_20" data-name="Path 20" d="M66.866,68.968c-.886-.9,3.964-19.869,4.94-20.56,22.185-.656,53.931-6.527,52.055,26.033C122.353,100.617,101.782,109.535,78,107.1c-1.237.8-3.221,14.872-4.643,16.859-2.217,3.1-16.361,2.246-20.02,1.05-1.024-.335-1.814.6-1.519-1.524L61.35,86.952c2.7-3.229,29.063,1.573,35.458-2.542,6.006-3.864,1.793-15.442-1.442-15.442Z" transform="translate(1131 155)" fill="#1f5cc8"/>
          <path id="Path_38" data-name="Path 38" d="M84.094-63.984,70.5,0H55.641l8.719-40.922L40.734,0H30.141L23.719-40.922,15,0H.188L13.781-63.984H32.813L40.359-23.2,65.344-63.984Zm48.281,20.109-26.3,42.563Q98.109,11.578,93.234,16.078a18.28,18.28,0,0,1-8.578,4.5,23.3,23.3,0,0,1-4.922.469q-2.109,0-6.469-.375L73.078,8.906a30.248,30.248,0,0,0,5.625.7A13.085,13.085,0,0,0,84.75,8.391a13.018,13.018,0,0,0,4.922-4.781l2.859-4.5L86.625-43.875h15.047l2.391,26.484L119.2-43.875ZM128.578,0l13.594-63.984h24.234a29.874,29.874,0,0,1,7.547.7,11.932,11.932,0,0,1,8.156,6.8,15.551,15.551,0,0,1,1.219,6.328,25.971,25.971,0,0,1-3.844,13.547,23.823,23.823,0,0,1-15,11.391,46.423,46.423,0,0,1-11.719,1.359h-3.8L143.906,0Zm23.016-36.047h3.563q5.906,0,8.484-2.391a10.148,10.148,0,0,0,2.719-4.734,12.119,12.119,0,0,0,.516-3.469q0-3.187-1.969-4.453-1.359-.891-5.906-.891h-4.031Zm53.438-1.031h21.188l-2.437,11.344H202.594L197.156,0H181.781l13.594-63.984h37.359L230.2-52.031H208.219Z" transform="translate(1289 239)" fill="#2d58a4"/>
          <path id="Path_39" data-name="Path 39" d="M24.244-5.126a2.837,2.837,0,0,0,.935,2.112,3.828,3.828,0,0,0,2.431.66,4.4,4.4,0,0,0,1.3-.165,2.483,2.483,0,0,0,.858-.44,1.565,1.565,0,0,0,.473-.649,2.261,2.261,0,0,0,.143-.814,1.746,1.746,0,0,0-.462-1.155,2.946,2.946,0,0,0-1.694-.781L26.18-6.732A12.1,12.1,0,0,1,24.046-7.3a4.929,4.929,0,0,1-1.551-.913,3.662,3.662,0,0,1-.957-1.375,5.142,5.142,0,0,1-.33-1.936,4.194,4.194,0,0,1,.451-1.98,4.047,4.047,0,0,1,1.254-1.43,5.878,5.878,0,0,1,1.925-.869,9.616,9.616,0,0,1,2.464-.3,8.845,8.845,0,0,1,2.86.4,5.2,5.2,0,0,1,1.848,1.045,4.08,4.08,0,0,1,1.045,1.507,7.066,7.066,0,0,1,.451,1.782l-3.1.4a3.061,3.061,0,0,0-.935-1.87,3.251,3.251,0,0,0-2.1-.572,5.49,5.49,0,0,0-1.375.143,2.74,2.74,0,0,0-.869.374,1.279,1.279,0,0,0-.462.539,1.6,1.6,0,0,0-.132.638,1.675,1.675,0,0,0,.5,1.32,3.683,3.683,0,0,0,1.683.682l2.156.418A7.466,7.466,0,0,1,32.6-7.667,4.3,4.3,0,0,1,33.792-4.4a4.645,4.645,0,0,1-.385,1.9A4.244,4.244,0,0,1,32.263-.979,5.4,5.4,0,0,1,30.36.033,8.9,8.9,0,0,1,27.676.4,7.67,7.67,0,0,1,22.759-.979a5.36,5.36,0,0,1-1.837-4.147ZM58.278.4a8.184,8.184,0,0,1-3.146-.572,6.4,6.4,0,0,1-2.354-1.65,7.4,7.4,0,0,1-1.485-2.6,10.612,10.612,0,0,1-.517-3.432,10.612,10.612,0,0,1,.517-3.432,7.313,7.313,0,0,1,1.5-2.6,6.5,6.5,0,0,1,2.365-1.65,8.123,8.123,0,0,1,3.124-.572,8.184,8.184,0,0,1,3.146.572,6.3,6.3,0,0,1,2.343,1.65,7.362,7.362,0,0,1,1.463,2.6,10.824,10.824,0,0,1,.506,3.432,11.046,11.046,0,0,1-.5,3.432,7.231,7.231,0,0,1-1.452,2.6,6.3,6.3,0,0,1-2.343,1.65A8.246,8.246,0,0,1,58.278.4ZM58.256-2.42a3.541,3.541,0,0,0,3.08-1.408,6.83,6.83,0,0,0,1.012-4.026,6.839,6.839,0,0,0-1.012-4.015,3.53,3.53,0,0,0-3.08-1.419,3.53,3.53,0,0,0-3.08,1.419,6.839,6.839,0,0,0-1.012,4.015,6.83,6.83,0,0,0,1.012,4.026A3.541,3.541,0,0,0,58.256-2.42ZM83.842-15.708H94.16v2.816H87.12v3.7h6.622V-6.38H87.12V0H83.842Zm32.032,2.838h-4.73v-2.838H123.9v2.838h-4.73V0h-3.3Zm24.75-2.838h3.7L146.85-4.8l2.574-10.824H152.9L155.584-4.8l2.376-10.912h3.52L157.212,0h-3.19L151.1-11.616,148.258,0h-3.1Zm41.272,0h3.124L190.916,0H187.4l-1.254-3.63h-5.5L179.388,0H176Zm3.388,9.372-1.914-5.632-1.892,5.632Zm22.858-9.372h5.566a9.17,9.17,0,0,1,3.047.429,4.917,4.917,0,0,1,1.881,1.122,3.792,3.792,0,0,1,.946,1.54,5.564,5.564,0,0,1,.264,1.661A5.383,5.383,0,0,1,219.3-8.4a4.352,4.352,0,0,1-1.848,1.738L220.638,0H217.1l-2.64-5.9h-3.08V0h-3.234Zm5.786,7.084a4.179,4.179,0,0,0,1.276-.165,1.983,1.983,0,0,0,.8-.462,1.55,1.55,0,0,0,.407-.715,3.628,3.628,0,0,0,.11-.924,2.459,2.459,0,0,0-.132-.8,1.659,1.659,0,0,0-.451-.682,2.17,2.17,0,0,0-.88-.462A5.125,5.125,0,0,0,213.642-13h-2.266v4.378Zm23.98-7.084h10.714v2.794h-7.436v3.432h7v2.816h-7v3.872h7.9L248.754,0H237.908Z" transform="translate(1267 281)" fill="#989898"/>
        </g>
      </g>
    </g>
  </g>
</svg>
