<svg xmlns="http://www.w3.org/2000/svg" xmlns:xlink="http://www.w3.org/1999/xlink" width="123.941" height="126.094" viewBox="0 0 123.941 126.094">
  <defs>
    <linearGradient id="linear-gradient" x1="0.161" y1="0.183" x2="0.5" y2="1" gradientUnits="objectBoundingBox">
      <stop offset="0" stop-color="#1381fe"/>
      <stop offset="1" stop-color="#38c6eb"/>
    </linearGradient>
  </defs>
  <g id="Group_69" data-name="Group 69" transform="translate(17891 621.792)">
    <path id="Path_19" data-name="Path 19" d="M115.866,30.968h-53.5c-1.708,0-7.486,6.078-7.545,8.455l-21.486,78.57C-2.044,100.143-10.972,52.642,14.84,22.442c25.7-30.066,71.184-29.948,96.54.512,1.823,2.191,4.672,5.119,4.486,8.014" transform="translate(-17891 -621.792)" fill="url(#linear-gradient)"/>
    <path id="Path_20" data-name="Path 20" d="M66.866,68.968c-.886-.9,3.964-19.869,4.94-20.56,22.185-.656,53.931-6.527,52.055,26.033C122.353,100.617,101.782,109.535,78,107.1c-1.237.8-3.221,14.872-4.643,16.859-2.217,3.1-16.361,2.246-20.02,1.05-1.024-.335-1.814.6-1.519-1.524L61.35,86.952c2.7-3.229,29.063,1.573,35.458-2.542,6.006-3.864,1.793-15.442-1.442-15.442Z" transform="translate(-17891 -621.792)" fill="#1f5cc8"/>
  </g>
</svg>
